
<svg viewBox="0 0 512 512" xmlns="http://www.w3.org/2000/svg" role="img" aria-label="ペカンの森">
  <defs>
    <linearGradient id="bg" x1="0" y1="0" x2="1" y2="1">
      <stop offset="0" stop-color="#F8FCF5"/>
      <stop offset="1" stop-color="#E7F3E4"/>
    </linearGradient>
    <filter id="softShadow" x="-20%" y="-20%" width="140%" height="140%">
      <feDropShadow dx="0" dy="18" stdDeviation="18" flood-color="#365C3E" flood-opacity="0.16"/>
    </filter>
  </defs>
  <rect x="0" y="0" width="512" height="512" rx="112" fill="url(#bg)"/>
  <circle cx="126" cy="105" r="54" fill="#FFFFFF" opacity="0.62"/>
  <circle cx="424" cy="130" r="68" fill="#FFF5DD" opacity="0.70"/>
  <g filter="url(#softShadow)">
    <path d="M256 414V222" stroke="#7A552B" stroke-width="34" stroke-linecap="round"/>
    <path d="M256 300C204 274 162 231 143 166" stroke="#8A6232" stroke-width="22" stroke-linecap="round"/>
    <path d="M256 280C316 250 360 205 388 142" stroke="#8A6232" stroke-width="22" stroke-linecap="round"/>
    <path d="M256 241C226 205 213 169 207 119" stroke="#8A6232" stroke-width="18" stroke-linecap="round"/>
    <ellipse cx="137" cy="158" rx="48" ry="61" fill="#7FB06B" transform="rotate(-35 137 158)"/>
    <ellipse cx="212" cy="103" rx="52" ry="65" fill="#5F9A55" transform="rotate(-16 212 103)"/>
    <ellipse cx="311" cy="108" rx="52" ry="65" fill="#6FA65D" transform="rotate(18 311 108)"/>
    <ellipse cx="397" cy="169" rx="48" ry="61" fill="#86B875" transform="rotate(35 397 169)"/>
    <ellipse cx="187" cy="232" rx="49" ry="57" fill="#8DBF7C" transform="rotate(-55 187 232)"/>
    <ellipse cx="331" cy="232" rx="49" ry="57" fill="#7CAF6B" transform="rotate(55 331 232)"/>
    <ellipse cx="187" cy="384" rx="28" ry="43" fill="#B47A33" transform="rotate(28 187 384)"/>
    <path d="M172 365C190 380 200 395 202 413" stroke="#7A552B" stroke-width="7" stroke-linecap="round" opacity="0.62"/>
    <ellipse cx="329" cy="384" rx="28" ry="43" fill="#B47A33" transform="rotate(-28 329 384)"/>
    <path d="M344 365C326 380 316 395 314 413" stroke="#7A552B" stroke-width="7" stroke-linecap="round" opacity="0.62"/>
    <path d="M154 441h205" stroke="#7FB06B" stroke-width="28" stroke-linecap="round" opacity="0.58"/>
  </g>
</svg>
